<?xml version="1.0" encoding="UTF-8"?>
<svg xmlns="http://www.w3.org/2000/svg" width="200" height="60" viewBox="0 0 200 60">
  <g fill="none" fill-rule="evenodd">
    <path fill="#002C86" d="M0 0h200v60H0z"/>
    <path fill="#FF0000" d="M35 10l130 0v40H35z"/>
    <path fill="#FFFFFF" d="M50 22c1.2 0 2.1.4 2.9 1.2.8.8 1.2 1.7 1.2 2.9 0 1.1-.4 2.1-1.2 2.9-.8.8-1.7 1.1-2.9 1.1-1.1 0-2.1-.4-2.9-1.1-.8-.8-1.2-1.7-1.2-2.9 0-1.2.4-2.1 1.2-2.9.8-.8 1.8-1.2 2.9-1.2zm23 0c3.9 0 6.5 2 7.9 6h-5.4c-.5-1.3-1.4-2-2.5-2-1.7 0-2.5 1.3-2.5 4 0 2.7.8 4 2.5 4 1.2 0 2-.7 2.5-2h5.4c-1.4 4-4 6-7.9 6-2.3 0-4.2-.7-5.6-2.1-1.4-1.4-2.1-3.4-2.1-5.9 0-2.5.7-4.5 2.1-5.9 1.4-1.4 3.3-2.1 5.6-2.1zm29 0c2.3 0 4.2.7 5.6 2.1 1.4 1.4 2.1 3.4 2.1 5.9 0 2.5-.7 4.5-2.1 5.9-1.4 1.4-3.3 2.1-5.6 2.1-2.3 0-4.2-.7-5.6-2.1-1.4-1.4-2.1-3.4-2.1-5.9 0-2.5.7-4.5 2.1-5.9 1.4-1.4 3.3-2.1 5.6-2.1zm24.9 0c2.3 0 4 .6 5.3 1.7 1.3 1.2 1.9 2.7 1.9 4.7v8.5h-5.1V30h-5.2v6.9h-5.1V22.3h5.1v4.9h5.2c0-1.1-.6-1.7-1.7-1.7h-8.5v-3.5h8.1zm-54.8 0v3.5h-8.6V38h-5.1V22h13.7zm30.9 3.5c-1.7 0-2.5 1.3-2.5 4 0 2.7.8 4 2.5 4s2.5-1.3 2.5-4c0-2.7-.8-4-2.5-4zm54.5-3.5c2.3 0 4.2.7 5.6 2.1 1.4 1.4 2.1 3.4 2.1 5.9 0 2.5-.7 4.5-2.1 5.9-1.4 1.4-3.3 2.1-5.6 2.1-2.3 0-4.2-.7-5.6-2.1-1.4-1.4-2.1-3.4-2.1-5.9 0-2.5.7-4.5 2.1-5.9 1.4-1.4 3.3-2.1 5.6-2.1zm0 3.5c-1.7 0-2.5 1.3-2.5 4 0 2.7.8 4 2.5 4s2.5-1.3 2.5-4c0-2.7-.8-4-2.5-4z"/>
  </g>
</svg> 